<?xml version="1.0" encoding="UTF-8" standalone="no"?>
<svg
   viewBox="0 0 16 16"
   version="1.1"
   id="svg5"
   sodipodi:docname="bulipy.svg"
   inkscape:version="1.3-beta (cedbd6c, 2023-05-28)"
   width="32"
   height="32"
   xmlns:inkscape="http://www.inkscape.org/namespaces/inkscape"
   xmlns:sodipodi="http://sodipodi.sourceforge.net/DTD/sodipodi-0.dtd"
   xmlns="http://www.w3.org/2000/svg"
   xmlns:svg="http://www.w3.org/2000/svg"
   xmlns:rdf="http://www.w3.org/1999/02/22-rdf-syntax-ns#"
   xmlns:cc="http://creativecommons.org/ns#"
   xmlns:dc="http://purl.org/dc/elements/1.1/">
  <metadata
     id="metadata9">
    <rdf:RDF>
      <cc:Work
         rdf:about="">
        <dc:format>image/svg+xml</dc:format>
        <dc:type
           rdf:resource="http://purl.org/dc/dcmitype/StillImage" />
      </cc:Work>
    </rdf:RDF>
  </metadata>
  <sodipodi:namedview
     pagecolor="#808080"
     bordercolor="#666666"
     borderopacity="1"
     objecttolerance="10"
     gridtolerance="10"
     guidetolerance="10"
     inkscape:pageopacity="0"
     inkscape:pageshadow="2"
     inkscape:window-width="1710"
     inkscape:window-height="1499"
     id="namedview7"
     showgrid="true"
     inkscape:zoom="16"
     inkscape:cx="12.65625"
     inkscape:cy="19.5"
     inkscape:window-x="2049"
     inkscape:window-y="79"
     inkscape:window-maximized="0"
     inkscape:current-layer="svg5"
     inkscape:snap-bbox="true"
     inkscape:bbox-nodes="true"
     inkscape:snap-page="true"
     inkscape:document-rotation="0"
     inkscape:snap-bbox-edge-midpoints="true"
     inkscape:snap-grids="false"
     inkscape:object-nodes="true"
     inkscape:showpageshadow="0"
     inkscape:pagecheckerboard="0"
     inkscape:deskcolor="#d1d1d1">
    <inkscape:grid
       id="grid1"
       units="px"
       originx="0"
       originy="0"
       spacingx="0.5"
       spacingy="0.5"
       empcolor="#3f3fff"
       empopacity="0.25098039"
       color="#3f3fff"
       opacity="0.12549"
       empspacing="5"
       dotted="false"
       gridanglex="30"
       gridanglez="30"
       visible="true" />
  </sodipodi:namedview>
  <defs
     id="defs3051">
    <style
       type="text/css"
       id="current-color-scheme">&#10;      .ColorScheme-Text {&#10;        color:#232629;&#10;      }&#10;      </style>
    <linearGradient
       id="linearGradient4689">
      <stop
         style="stop-color:#5a9fd4;stop-opacity:1;"
         offset="0"
         id="stop4691" />
      <stop
         style="stop-color:#306998;stop-opacity:1;"
         offset="1"
         id="stop4693" />
    </linearGradient>
    <linearGradient
       id="linearGradient4671">
      <stop
         style="stop-color:#ffd43b;stop-opacity:1;"
         offset="0"
         id="stop4673" />
      <stop
         style="stop-color:#ffe873;stop-opacity:1"
         offset="1"
         id="stop4675" />
    </linearGradient>
  </defs>
  <path
     id="path55"
     style="fill:#000000;fill-opacity:1;stroke-width:0.377952;stroke-linecap:round"
     d="M 7 1.5 A 2.5 2.5 0 0 0 4.5 4 L 4.5 5 L 4.5 5.5126953 C 4.4868201 5.7743864 4.2743864 5.98682 4.0126953 6 A 2 2.25 0 0 0 4 6 A 2 2.25 0 0 0 2 8.25 A 2 2.25 0 0 0 2.0009766 8.2626953 L 2 8.2626953 L 2 9.5 L 2 10.5 A 2.5 2.5 0 0 0 4.5 13 A 2.5 2.5 0 0 0 6.5 11.989258 L 6.5 11 L 6.5 9.75 C 6.5 8.2713157 7.5854325 7.0070578 8.9882812 7 C 8.9940012 6.999712 8.999712 6.9939912 9 6.9882812 L 9 6.5 L 9 5.5 C 9 4.8929548 9.1823819 4.3268752 9.4951172 3.8535156 A 2.5 2.5 0 0 0 7 1.5 z M 4.5 13 L 3 14.5 L 4.5 14.5 L 6 14.5 L 4.5 13 z M 4.5 4 L 3 2.5 L 3 4 L 3 5.5 L 4.5 4 z M 10.5 1.5 L 12 3 L 13.5 1.5 L 12 1.5 L 10.5 1.5 z M 12 3 A 2.5 2.5 0 0 0 9.5 5.5 L 9.5 6.5 L 9.5 7.0126953 C 9.4868169 7.2743861 9.2743867 7.4868196 9.0126953 7.5 L 9 7.5 A 2 2.25 0 0 0 7 9.75 L 7 11 L 7 12 A 2.5 2.5 0 0 0 9.5 14.5 A 2.5 2.5 0 0 0 12 12 L 12 11 L 12 10.487305 C 12.01318 10.225613 12.225613 10.01318 12.487305 10 A 2 2.25 0 0 0 12.5 10 A 2 2.25 0 0 0 14.5 7.75 A 2 2.25 0 0 0 14.499023 7.7373047 L 14.5 7.7373047 L 14.5 6.5 L 14.5 5.5 A 2.5 2.5 0 0 0 12 3 z M 12 12 L 13.5 13.5 L 13.5 12 L 13.5 10.5 L 12 12 z M 6 2.5 A 0.5 0.5 0 0 1 6.5 3 A 0.5 0.5 0 0 1 6 3.5 A 0.5 0.5 0 0 1 5.5 3 A 0.5 0.5 0 0 1 6 2.5 z M 10.5 12.5 A 0.5 0.5 0 0 1 11 13 A 0.5 0.5 0 0 1 10.5 13.5 A 0.5 0.5 0 0 1 10 13 A 0.5 0.5 0 0 1 10.5 12.5 z " />
</svg>
